<?xml version="1.0" standalone="no"?>
<!DOCTYPE svg PUBLIC "-//W3C//DTD SVG 20010904//EN"
 "http://www.w3.org/TR/2001/REC-SVG-20010904/DTD/svg10.dtd">
<svg version="1.0" xmlns="http://www.w3.org/2000/svg"
 width="290.000000pt" height="290.000000pt" viewBox="0 0 290.000000 290.000000"
 preserveAspectRatio="xMidYMid meet">
<metadata>
Created by potrace 1.14, written by Peter Selinger 2001-2017
</metadata>
<g transform="translate(0.000000,290.000000) scale(0.100000,-0.100000)"
fill="#000000" stroke="none">
<path d="M1287 2844 c-1 -1 -69 -5 -151 -8 -82 -4 -152 -9 -156 -11 -3 -2 -27
-6 -52 -9 -59 -7 -78 -15 -78 -32 0 -16 81 -65 123 -73 18 -4 32 -13 32 -21 0
-7 -38 -40 -85 -71 -109 -74 -111 -88 -18 -138 72 -38 81 -53 46 -72 -33 -18
-118 -100 -118 -114 0 -7 32 -33 70 -56 39 -24 70 -46 70 -49 -1 -11 -37 -46
-70 -69 -19 -13 -43 -33 -52 -46 -15 -20 -15 -24 -2 -44 9 -12 37 -32 64 -46
27 -14 51 -29 54 -34 9 -15 -4 -40 -25 -46 -21 -7 -119 -103 -119 -117 0 -10
77 -60 120 -78 17 -7 30 -16 30 -20 0 -4 -31 -33 -69 -65 -73 -61 -96 -93 -77
-110 6 -6 32 -21 58 -35 74 -39 86 -49 68 -60 -40 -25 -100 -78 -118 -107
l-21 -32 32 -19 c18 -11 51 -30 75 -42 23 -13 42 -26 42 -29 0 -3 -19 -17 -42
-31 -42 -26 -108 -86 -108 -99 0 -12 29 -34 85 -66 53 -31 75 -48 75 -62 0 -4
-20 -19 -44 -32 -49 -25 -118 -89 -113 -104 1 -5 32 -25 67 -44 90 -50 96 -63
39 -97 -46 -27 -99 -76 -99 -92 0 -19 32 -47 85 -73 24 -12 47 -26 50 -31 3
-5 -28 -35 -70 -66 -41 -32 -77 -64 -79 -71 -4 -8 22 -29 69 -56 41 -23 76
-48 79 -55 3 -7 -13 -24 -37 -39 -47 -30 -87 -63 -87 -73 0 -3 16 -7 36 -8 20
-2 44 -7 53 -11 39 -21 109 -25 489 -28 375 -3 408 -2 483 17 107 26 148 47
155 77 10 38 -10 69 -65 99 -28 15 -51 31 -51 36 0 4 31 29 69 54 68 45 87 66
76 85 -3 5 -36 25 -73 45 -101 56 -99 52 -40 92 64 42 108 82 108 97 0 6 -30
29 -67 51 -39 24 -68 48 -68 57 0 9 32 38 70 64 43 30 70 55 70 67 0 12 -20
29 -60 50 -119 63 -114 52 -48 96 32 21 74 52 93 68 l35 30 -25 20 c-14 11
-53 35 -88 54 -35 18 -65 36 -68 39 -2 4 20 22 48 40 77 49 118 88 111 104 -3
8 -31 31 -63 50 -90 55 -90 57 -23 106 60 43 102 86 103 104 0 6 -35 28 -77
50 -42 22 -79 45 -81 52 -1 6 28 33 67 59 38 27 74 59 80 71 12 26 10 28 -89
81 -30 17 -55 37 -55 46 0 8 27 36 59 61 88 68 93 77 54 110 -17 14 -51 36
-75 47 -23 11 -43 24 -43 28 0 5 27 27 60 49 79 54 100 73 100 88 0 13 -100
83 -118 83 -5 0 -15 6 -21 14 -10 12 -3 21 42 49 50 33 97 79 97 98 0 14 -52
57 -91 75 -43 19 -47 29 -24 61 14 20 14 23 -2 31 -53 27 -136 34 -431 36
-139 1 -254 1 -255 0z"/>
</g>
</svg>
